<svg xmlns="http://www.w3.org/2000/svg" width="25" height="25" viewBox="0 0 25 25">
    <g fill="none" fill-rule="evenodd">
        <g fill="#332CE6" fill-rule="nonzero">
            <g>
                <g>
                    <path d="M14.777 6.668c-.183.033-.327.167-.379.344-.051.18.002.37.135.497L18.986 12H4.63c-.267.01-.476.241-.463.51.014.269.24.478.509.465h14.31l-4.453 4.489c-.143.119-.21.307-.167.491.042.18.183.325.363.367.181.042.37-.025.486-.171l5.285-5.313.333-.351-.333-.351-5.285-5.313c-.1-.11-.246-.165-.394-.154h-.044z" transform="translate(-1370 -5170) translate(1362 5162) translate(8 8)"/>
                </g>
            </g>
        </g>
    </g>
</svg>
