<svg width="30" height="30" viewBox="0 0 30 30" fill="none" xmlns="http://www.w3.org/2000/svg">
<path d="M26.7773 3.52148H11.7441C11.1227 3.52218 10.527 3.76934 10.0876 4.20872C9.64822 4.64811 9.40107 5.24385 9.40037 5.86523V7.37109H3.22266C2.60127 7.37179 2.00553 7.61895 1.56615 8.05833C1.12676 8.49772 0.879604 9.09346 0.878906 9.71484V20.3203C0.879604 20.9417 1.12676 21.5374 1.56615 21.9768C2.00553 22.4162 2.60127 22.6634 3.22266 22.6641H3.91471V25.8926C3.91474 25.9979 3.94314 26.1012 3.99693 26.1917C4.05072 26.2822 4.1279 26.3566 4.22036 26.4069C4.31282 26.4573 4.41715 26.4818 4.52237 26.4779C4.62758 26.474 4.72981 26.4418 4.81828 26.3848L10.5858 22.6641H16.6279C17.2493 22.6634 17.845 22.4162 18.2844 21.9768C18.7238 21.5374 18.971 20.9417 18.9717 20.3203V18.4642H19.8105L25.2509 22.9043C25.3367 22.9744 25.4408 23.0187 25.5508 23.032C25.6609 23.0454 25.7725 23.0272 25.8726 22.9797C25.9728 22.9322 26.0574 22.8572 26.1166 22.7635C26.1759 22.6698 26.2073 22.5612 26.2073 22.4503V18.4642H26.7773C27.3987 18.4635 27.9945 18.2164 28.4339 17.777C28.8732 17.3376 29.1204 16.7419 29.1211 16.1205V5.86523C29.1204 5.24385 28.8732 4.64811 28.4339 4.20872C27.9945 3.76934 27.3987 3.52218 26.7773 3.52148V3.52148ZM17.7998 20.3203C17.7995 20.631 17.6759 20.9289 17.4562 21.1486C17.2365 21.3683 16.9387 21.4918 16.628 21.4922H10.4132C10.3005 21.4922 10.1902 21.5248 10.0956 21.5859L5.08664 24.8175V22.0781C5.08664 21.9227 5.02491 21.7737 4.91502 21.6638C4.80514 21.5539 4.6561 21.4922 4.5007 21.4922H3.22266C2.91197 21.4918 2.6141 21.3683 2.39441 21.1486C2.17472 20.9289 2.05114 20.631 2.05078 20.3203V9.71484C2.05114 9.40415 2.17472 9.10629 2.39441 8.8866C2.6141 8.6669 2.91197 8.54333 3.22266 8.54297H9.40037V16.1205C9.40107 16.7419 9.64822 17.3376 10.0876 17.777C10.527 18.2164 11.1227 18.4635 11.7441 18.4642H17.7998V20.3203ZM27.9492 16.1205C27.9489 16.4312 27.8253 16.729 27.6056 16.9487C27.3859 17.1684 27.088 17.292 26.7773 17.2924H25.6213C25.4659 17.2924 25.3169 17.3541 25.207 17.464C25.0971 17.5739 25.0354 17.7229 25.0354 17.8783V21.2159L20.3895 17.4244C20.2849 17.339 20.154 17.2924 20.019 17.2924H11.7441C11.4334 17.2921 11.1356 17.1685 10.9159 16.9488C10.6962 16.7291 10.5726 16.4312 10.5722 16.1205V5.86523C10.5726 5.55454 10.6962 5.25668 10.9159 5.03699C11.1356 4.8173 11.4334 4.69372 11.7441 4.69336H26.7773C27.088 4.69372 27.3859 4.8173 27.6056 5.03699C27.8253 5.25668 27.9489 5.55454 27.9492 5.86523V16.1205Z" fill="#8C8C8C"/>
</svg>
