<svg xmlns="http://www.w3.org/2000/svg" width="30" height="30" viewBox="0 0 30 30">
    <g fill="none" fill-rule="evenodd">
        <g fill="#FFF" fill-rule="nonzero">
            <g>
                <g>
                    <path fill="#332ce6" d="M17.733 8.002c-.22.039-.394.2-.455.412-.062.217.002.445.162.597l5.343 5.387H5.556c-.32.014-.571.29-.555.613.016.322.288.573.61.557h17.172l-5.343 5.387c-.171.143-.251.369-.201.59.05.217.22.39.436.44.217.05.444-.03.583-.205l6.342-6.375.4-.422-.4-.422-6.342-6.375c-.121-.131-.295-.198-.473-.184h-.052z" transform="translate(-721 -857) translate(212 829) translate(509 28)"/>
                </g>
            </g>
        </g>
    </g>
</svg>
