<?xml version="1.0" encoding="UTF-8"?>
<svg width="25px" height="22px" viewBox="0 0 25 22" version="1.1" xmlns="http://www.w3.org/2000/svg" xmlns:xlink="http://www.w3.org/1999/xlink">
    <title>F12A8C20-0784-4FA0-885D-A86915A22EE0</title>
    <g id="09---Cart-page" stroke="none" stroke-width="1" fill="none" fill-rule="evenodd">
        <g id="desktop/cms/cart" transform="translate(-288.000000, -447.000000)" fill="#332CE6" fill-rule="nonzero">
            <g id="icon/control/bin-delete3" transform="translate(288.000000, 447.000000)">
                <path d="M14.9277778,3.15333333 C15.2499439,3.15333333 15.5111111,3.3831605 15.5111111,3.66666667 L15.511,5.16733333 L17.9833333,5.16755556 L18.0634922,5.17245877 C18.0899501,5.16922635 18.1169755,5.16755556 18.1444444,5.16755556 L20.1055556,5.16755556 C20.4277217,5.16755556 20.6888889,5.39738272 20.6888889,5.68088889 C20.6888889,5.96439506 20.4277217,6.19422222 20.1055556,6.19422222 L18.566,6.19333333 L18.5666667,17.8395556 C18.5666667,18.1230617 18.3054994,18.3528889 17.9833333,18.3528889 L6.51111111,18.3528889 C6.18894501,18.3528889 5.92777778,18.1230617 5.92777778,17.8395556 L5.927,6.19333333 L4.58333333,6.19422222 C4.26116723,6.19422222 4,5.96439506 4,5.68088889 C4,5.39738272 4.26116723,5.16755556 4.58333333,5.16755556 L6.36666667,5.16755556 L6.43899899,5.17143928 C6.46262789,5.16887569 6.48669431,5.16755556 6.51111111,5.16755556 L9.416,5.16733333 L9.41666667,3.66666667 C9.41666667,3.3831605 9.6778339,3.15333333 10,3.15333333 L14.9277778,3.15333333 Z M17.4,6.19422222 L7.09444444,6.19422222 L7.09444444,17.3262222 L17.4,17.3262222 L17.4,6.19422222 Z M14.3444444,4.18 L10.5833333,4.18 L10.583,5.16733333 L14.344,5.16733333 L14.3444444,4.18 Z" id="Combined-Shape"></path>
            </g>
        </g>
    </g>
</svg>