<svg xmlns="http://www.w3.org/2000/svg" width="25" height="25" viewBox="0 0 25 25">
    <g fill="none" fill-rule="evenodd">
        <g fill="#332CE6" fill-rule="nonzero">
            <g>
                <g>
                    <path d="M21.33 18.15c.322 0 .583.262.583.584 0 .322-.26.583-.583.583H4.503c-.322 0-.583-.26-.583-.583 0-.322.261-.583.583-.583H21.33zm0-6.17c.322 0 .583.262.583.584 0 .322-.26.583-.583.583H4.503c-.322 0-.583-.26-.583-.583 0-.322.261-.583.583-.583H21.33zm0-6.17c.322 0 .583.262.583.584 0 .322-.26.584-.583.584H4.503c-.322 0-.583-.262-.583-.584 0-.322.261-.583.583-.583H21.33z" transform="translate(-15 -18) translate(15 5) translate(0 13)"/>
                </g>
            </g>
        </g>
    </g>
</svg>
