<svg width="30" height="30" viewBox="0 0 30 30" fill="none" xmlns="http://www.w3.org/2000/svg">
<path d="M4.7437 1.18124C4.71792 1.18593 4.69214 1.19296 4.6687 1.19999C4.38979 1.26327 4.19292 1.51405 4.19995 1.79999V7.19999H9.59995C9.81558 7.20233 10.0171 7.08983 10.1273 6.90233C10.2351 6.71483 10.2351 6.48514 10.1273 6.29764C10.0171 6.11014 9.81558 5.99764 9.59995 5.99999H6.18745C8.46089 3.77577 11.5664 2.39999 15 2.39999C21.9656 2.39999 27.5999 8.03436 27.5999 15C27.5999 21.9656 21.9656 27.6 15 27.6C8.03433 27.6 2.39995 21.9656 2.39995 15C2.39995 12.9164 2.91323 10.9547 3.8062 9.22499L2.73745 8.68124C1.75776 10.575 1.19995 12.7242 1.19995 15C1.19995 22.6148 7.38511 28.8 15 28.8C22.6148 28.8 28.7999 22.6148 28.7999 15C28.7999 7.38514 22.6148 1.19999 15 1.19999C11.264 1.19999 7.88433 2.70233 5.39995 5.11874V1.79999C5.40698 1.62655 5.33667 1.46014 5.21245 1.34296C5.08589 1.22343 4.91479 1.16483 4.7437 1.18124ZM15 2.99999C14.6695 2.99999 14.4 3.26952 14.4 3.59999C14.4 3.93046 14.6695 4.19999 15 4.19999C15.3304 4.19999 15.6 3.93046 15.6 3.59999C15.6 3.26952 15.3304 2.99999 15 2.99999ZM20.6999 4.51874C20.3695 4.51874 20.1 4.78827 20.1 5.11874C20.1 5.44921 20.3695 5.71874 20.6999 5.71874C21.0304 5.71874 21.2999 5.44921 21.2999 5.11874C21.2999 4.78827 21.0304 4.51874 20.6999 4.51874ZM24.8812 8.69999C24.5507 8.69999 24.2812 8.96952 24.2812 9.29999C24.2812 9.63046 24.5507 9.89999 24.8812 9.89999C25.2117 9.89999 25.4812 9.63046 25.4812 9.29999C25.4812 8.96952 25.2117 8.69999 24.8812 8.69999ZM11.025 10.1437C9.36089 10.1437 8.17495 11.2289 8.17495 12.7875V12.8062H9.41245V12.7875C9.41245 11.8851 10.0359 11.2875 10.9687 11.2875C11.8406 11.2875 12.5062 11.8641 12.5062 12.6375C12.5062 13.2586 12.232 13.7086 11.1 14.8875L8.24995 17.85V18.8062H13.95V17.625H10.0687V17.5312L11.9625 15.6187C13.3804 14.1844 13.8 13.4578 13.8 12.5625C13.8 11.168 12.6304 10.1437 11.025 10.1437ZM18.9562 10.35C17.4492 12.607 16.1882 14.5734 15.4312 15.9562V17.175H19.5562V18.8062H20.8125V17.175H21.9937V15.9937H20.8125V10.35H18.9562ZM19.5 11.5125H19.5749V16.0312H16.6875V15.9375C17.6835 14.2078 18.6632 12.7242 19.5 11.5125ZM3.59995 14.4C3.26948 14.4 2.99995 14.6695 2.99995 15C2.99995 15.3305 3.26948 15.6 3.59995 15.6C3.93042 15.6 4.19995 15.3305 4.19995 15C4.19995 14.6695 3.93042 14.4 3.59995 14.4ZM26.4 14.4C26.0695 14.4 25.7999 14.6695 25.7999 15C25.7999 15.3305 26.0695 15.6 26.4 15.6C26.7304 15.6 27 15.3305 27 15C27 14.6695 26.7304 14.4 26.4 14.4ZM5.1187 20.1C4.78823 20.1 4.5187 20.3695 4.5187 20.7C4.5187 21.0305 4.78823 21.3 5.1187 21.3C5.44917 21.3 5.7187 21.0305 5.7187 20.7C5.7187 20.3695 5.44917 20.1 5.1187 20.1ZM24.8812 20.1C24.5507 20.1 24.2812 20.3695 24.2812 20.7C24.2812 21.0305 24.5507 21.3 24.8812 21.3C25.2117 21.3 25.4812 21.0305 25.4812 20.7C25.4812 20.3695 25.2117 20.1 24.8812 20.1ZM9.29995 24.2812C8.96948 24.2812 8.69995 24.5508 8.69995 24.8812C8.69995 25.2117 8.96948 25.4812 9.29995 25.4812C9.63042 25.4812 9.89995 25.2117 9.89995 24.8812C9.89995 24.5508 9.63042 24.2812 9.29995 24.2812ZM20.6999 24.2812C20.3695 24.2812 20.1 24.5508 20.1 24.8812C20.1 25.2117 20.3695 25.4812 20.6999 25.4812C21.0304 25.4812 21.2999 25.2117 21.2999 24.8812C21.2999 24.5508 21.0304 24.2812 20.6999 24.2812ZM15 25.8C14.6695 25.8 14.4 26.0695 14.4 26.4C14.4 26.7305 14.6695 27 15 27C15.3304 27 15.6 26.7305 15.6 26.4C15.6 26.0695 15.3304 25.8 15 25.8Z" fill="#8C8C8C"/>
</svg>
