<svg xmlns="http://www.w3.org/2000/svg" width="25" height="25" viewBox="0 0 25 25">
    <g fill="none" fill-rule="evenodd">
        <g fill="#332CE6" fill-rule="nonzero">
            <g>
                <g>
                    <path d="M20.531 7.27h-.018c.322 0 .583.26.583.583v10.576c0 .323-.261.584-.583.584H4.487c-.322 0-.583-.261-.583-.584V7.853c0-.316.25-.573.564-.583H20.53zM5.07 9.01v8.836h14.86l-.001-8.835-7.077 5.365c-.208.158-.496.158-.704 0L5.07 9.01zm13.687-.575H6.243L12.5 13.18l6.257-4.744z" transform="translate(-1310 -1977) translate(0 1792) translate(1310 185)"/>
                </g>
            </g>
        </g>
    </g>
</svg>
