<svg xmlns="http://www.w3.org/2000/svg" width="51" height="57" viewBox="0 0 51 57">
    <defs>
        <filter id="n9c0to0a3a">
            <feColorMatrix in="SourceGraphic" values="0 0 0 0 0.200000 0 0 0 0 0.172549 0 0 0 0 0.901961 0 0 0 1.000000 0"/>
        </filter>
    </defs>
    <g fill="none" fill-rule="evenodd">
        <g>
            <g>
                <g filter="url(#n9c0to0a3a)" transform="translate(-694 -1037) translate(538 999) translate(116)">
                    <g>
                        <path stroke="#000" stroke-width="2" d="M31.434 5.488c0 3.031 2.482 5.49 5.544 5.49 3.068 0 5.55-2.459 5.55-5.49C42.528 2.46 40.046 0 36.978 0c-3.062 0-5.544 2.46-5.544 5.488zm0 17.384l4.734 4.686c.52.515 1.226.804 1.962.804h8.427c1.209 0 2.31-.861 2.431-2.051.138-1.37-.945-2.524-2.3-2.524h-7.132l-5.185-5.236M17.475 30.973L12.39 37.51H2.93c-1.502 0-2.849 1.112-2.927 2.597C-.08 41.691 1.193 43 2.774 43h11.625c.834 0 1.623-.37 2.15-1.01l5.32-6.456" transform="translate(41 39)"/>
                        <path stroke="#000" stroke-width="2" d="M33.477 52.234V37.76c0-.766-.323-1.499-.89-2.021l-5.852-5.394 7.628-11.185c1.152-1.69.698-3.981-1.015-5.119l-3.161-2.099c-.926-.614-2.016-.942-3.13-.942H15.693c-.744 0-1.457.291-1.982.81l-6.96 6.865c-.864.853-1.03 2.244-.255 3.177.89 1.073 2.497 1.132 3.466.177l6.034-5.952 8.074.756-5.633 8.26c-1.889 2.768-1.325 6.5 1.298 8.608l8.133 6.532v12c0 1.529 1.255 2.767 2.804 2.767h0c1.549 0 2.804-1.238 2.804-2.766z" transform="translate(41 39)"/>
                        <path fill="#000" fill-rule="nonzero" d="M37 49c-.51 0-.923.448-.923 1s.413 1 .923 1 .923-.448.923-1-.413-1-.923-1zm3.692 0c-.51 0-.923.448-.923 1s.414 1 .923 1c.51 0 .923-.448.923-1s-.413-1-.923-1zm3.693 0c-.51 0-.923.448-.923 1s.413 1 .923 1 .923-.448.923-1-.414-1-.923-1zm3.692 0c-.51 0-.923.448-.923 1s.413 1 .923 1 .923-.448.923-1-.413-1-.923-1zM13 49c-.51 0-.923.448-.923 1s.413 1 .923 1 .923-.448.923-1-.413-1-.923-1zm3.692 0c-.51 0-.923.448-.923 1s.414 1 .923 1c.51 0 .923-.448.923-1s-.413-1-.923-1zm3.693 0c-.51 0-.923.448-.923 1s.413 1 .923 1 .923-.448.923-1-.414-1-.923-1zM1.923 49c-.51 0-.923.448-.923 1s.413 1 .923 1 .923-.448.923-1-.413-1-.923-1zm3.692 0c-.51 0-.923.448-.923 1s.414 1 .923 1c.51 0 .923-.448.923-1s-.413-1-.923-1zm3.693 0c-.51 0-.923.448-.923 1s.413 1 .923 1 .923-.448.923-1-.414-1-.923-1zm14.769 0c-.51 0-.923.448-.923 1s.413 1 .923 1 .923-.448.923-1-.413-1-.923-1z" transform="translate(41 39)"/>
                    </g>
                </g>
            </g>
        </g>
    </g>
</svg>
