<svg width="30" height="30" viewBox="0 0 30 30" fill="none" xmlns="http://www.w3.org/2000/svg">
<path d="M6.25 0C4.87183 0 3.75 1.12122 3.75 2.5V27.5C3.75 28.8788 4.87183 30 6.25 30H23.75C25.1282 30 26.25 28.8788 26.25 27.5V6.875C26.25 6.70898 26.1841 6.55029 26.0669 6.43311L19.8169 0.183105C19.6997 0.065918 19.541 0 19.375 0H6.25ZM6.25 1.25H18.75V5C18.75 6.37878 19.8718 7.5 21.25 7.5H25V27.5C25 28.1891 24.4397 28.75 23.75 28.75H6.25C5.5603 28.75 5 28.1891 5 27.5V2.5C5 1.81091 5.5603 1.25 6.25 1.25ZM20 2.13379L24.1162 6.25H21.25C20.5603 6.25 20 5.68909 20 5V2.13379ZM10.625 5C10.2795 5 10 5.27954 10 5.625V7.5H8.125C7.77954 7.5 7.5 7.77954 7.5 8.125V10.625C7.5 10.9705 7.77954 11.25 8.125 11.25H10V13.125C10 13.4705 10.2795 13.75 10.625 13.75H13.125C13.4705 13.75 13.75 13.4705 13.75 13.125V11.25H15.625C15.9705 11.25 16.25 10.9705 16.25 10.625V8.125C16.25 7.77954 15.9705 7.5 15.625 7.5H13.75V5.625C13.75 5.27954 13.4705 5 13.125 5H10.625ZM11.25 6.25H12.5V8.125C12.5 8.47046 12.7795 8.75 13.125 8.75H15V10H13.125C12.7795 10 12.5 10.2795 12.5 10.625V12.5H11.25V10.625C11.25 10.2795 10.9705 10 10.625 10H8.75V8.75H10.625C10.9705 8.75 11.25 8.47046 11.25 8.125V6.25ZM9.375 16.25C8.34106 16.25 7.5 17.0911 7.5 18.125C7.5 19.1589 8.34106 20 9.375 20C10.4089 20 11.25 19.1589 11.25 18.125C11.25 17.0911 10.4089 16.25 9.375 16.25ZM9.375 17.5C9.71924 17.5 10 17.7802 10 18.125C10 18.4698 9.71924 18.75 9.375 18.75C9.03076 18.75 8.75 18.4698 8.75 18.125C8.75 17.7802 9.03076 17.5 9.375 17.5ZM14.375 17.5C14.0295 17.5 13.75 17.7795 13.75 18.125C13.75 18.4705 14.0295 18.75 14.375 18.75H21.875C22.2205 18.75 22.5 18.4705 22.5 18.125C22.5 17.7795 22.2205 17.5 21.875 17.5H14.375ZM9.375 22.5C8.34106 22.5 7.5 23.3411 7.5 24.375C7.5 25.4089 8.34106 26.25 9.375 26.25C10.4089 26.25 11.25 25.4089 11.25 24.375C11.25 23.3411 10.4089 22.5 9.375 22.5ZM9.375 23.75C9.71924 23.75 10 24.0302 10 24.375C10 24.7198 9.71924 25 9.375 25C9.03076 25 8.75 24.7198 8.75 24.375C8.75 24.0302 9.03076 23.75 9.375 23.75ZM14.375 23.75C14.0295 23.75 13.75 24.0295 13.75 24.375C13.75 24.7205 14.0295 25 14.375 25H21.875C22.2205 25 22.5 24.7205 22.5 24.375C22.5 24.0295 22.2205 23.75 21.875 23.75H14.375Z" fill="#8C8C8C"/>
</svg>
