<svg xmlns="http://www.w3.org/2000/svg" width="70" height="62" viewBox="0 0 70 62">
    <defs>
        <filter id="gzbypvmjaa">
            <feColorMatrix in="SourceGraphic" values="0 0 0 0 0.200000 0 0 0 0 0.172549 0 0 0 0 0.901961 0 0 0 1.000000 0"/>
        </filter>
    </defs>
    <g fill="none" fill-rule="evenodd">
        <g>
            <g>
                <g filter="url(#gzbypvmjaa)" transform="translate(-1125 -1032) translate(978 999) translate(116)">
                    <g transform="translate(32 34)">
                        <path stroke="#000" stroke-linecap="round" stroke-linejoin="round" stroke-width="2" d="M37.105 16.552l-.423 4.899c0 .019-.004.037-.004.056 0 11.342 4.915 12.591 7.669 16.455M23.657 37.744c1.669-2.373 7.781-5.37 7.781-16.239 0-.019-.004-.037-.004-.057l-.535-4.898M37.105 0v16.552M30.899 16.552V0"/>
                        <path stroke="#000" stroke-linecap="round" stroke-linejoin="round" stroke-width="2" d="M21.363 15.89c.534-.252 1.327-.518 2.189-.341 2.707.556 3.843 5.021 4.582 7.924.437 1.717.917 4.289.866 7.527"/>
                        <path fill="#000" fill-rule="nonzero" d="M9.76 28.75c-.45-.32-.56-.95-.24-1.4.32-.45.95-.55 1.4-.23.45.32.55.94.229 1.39h.011c-.2.28-.511.42-.82.42-.2 0-.401-.06-.58-.18zm2.349-3.24c-.43-.34-.51-.97-.17-1.4.341-.44.971-.51 1.41-.17.431.34.5.96.17 1.4-.2.25-.489.38-.79.38-.219 0-.429-.07-.62-.21zm2.511-3.12c-.42-.36-.471-.99-.101-1.41.36-.42.99-.47 1.41-.1.41.36.46.99.101 1.41-.2.23-.48.34-.761.34-.229 0-.459-.08-.649-.24zm2.66-2.99c-.391-.39-.4-1.02-.011-1.41h.011c.39-.39 1.02-.39 1.409 0 .391.39.391 1.02 0 1.41-.189.2-.449.29-.71.29-.25 0-.509-.09-.699-.29zm2.88-2.8c-.28-.48-.11-1.09.37-1.36.479-.28 1.09-.11 1.369.37.271.48.101 1.09-.38 1.37-.16.09-.33.13-.489.13-.35 0-.69-.18-.87-.51z"/>
                        <path stroke="#000" stroke-linecap="round" stroke-linejoin="round" stroke-width="2" d="M29 36.797c0 3.718-.041 8.892-.041 8.892 0 7.252-6.2 13.508-13.849 13.975l-3.694.225C.26 60.569.96 58.246.96 50.144c0-6.864 4.561-15.386 9.435-22.212"/>
                        <path fill="#000" fill-rule="nonzero" d="M10.52 54.99c-.489-.25-.7-.84-.46-1.34.25-.5.851-.7 1.34-.46.5.25.7.84.46 1.34-.17.35-.529.56-.899.56-.151 0-.301-.03-.441-.1zm1.709-3.65c-.38-.39-.38-1.02.011-1.41.39-.39 1.02-.39 1.409 0 .391.39.391 1.03 0 1.42-.199.19-.449.29-.71.29-.25 0-.509-.1-.71-.3zm3.361-2.07c-.31-.46-.19-1.08.27-1.39.45-.3 1.08-.18 1.391.27.3.46.18 1.08-.28 1.39h.01c-.18.12-.37.17-.56.17-.331 0-.641-.15-.831-.44z"/>
                        <path stroke="#000" stroke-linecap="round" stroke-linejoin="round" stroke-width="2" d="M34.029 31.789c-2.64 4.937-10.032 6.332-10.032 6.332l-5.826 8.819c-.466.705-1.064 1.306-1.755 1.773"/>
                        <path fill="#000" fill-rule="nonzero" d="M8.04 46.55c-.271-.49-.09-1.1.39-1.36v-.01c.48-.26 1.09-.09 1.36.39.27.49.09 1.1-.391 1.36-.149.09-.319.13-.479.13-.36 0-.7-.19-.88-.51zm3.569-1.8c-.18-.52.091-1.1.61-1.28.521-.19 1.09.08 1.271.61.189.51-.08 1.09-.601 1.27-.109.04-.229.06-.34.06-.409 0-.789-.25-.94-.66zm3.821-1.19c-.1-.54.26-1.06.811-1.16.54-.1 1.06.27 1.159.81.101.54-.26 1.06-.81 1.16-.06.01-.12.02-.17.02-.481 0-.9-.34-.99-.83z"/>
                        <path stroke="#000" stroke-linecap="round" stroke-linejoin="round" stroke-width="2" d="M21.008 42.992l-.91.022c-1.239.03-2.47.155-3.683.372"/>
                        <path fill="#000" fill-rule="nonzero" d="M20.55 52.52c-.54-.12-.88-.65-.76-1.19.109-.54.649-.89 1.189-.77s.88.65.761 1.19c-.101.47-.511.79-.971.79-.069 0-.149-.01-.219-.02zm.72-3.94c-.55-.04-.96-.53-.91-1.08.051-.55.53-.96 1.08-.91.551.05.96.53.91 1.08-.04.52-.479.92-.99.92-.03 0-.06 0-.09-.01z"/>
                        <path stroke="#000" stroke-linecap="round" stroke-linejoin="round" stroke-width="2" d="M21.402 42.414l.048 1.283c.049 1.299.018 2.599-.092 3.889"/>
                        <path fill="#000" fill-rule="nonzero" d="M18.13 33.3c-.11-.54.24-1.07.78-1.17.54-.11 1.069.23 1.18.77v.01c.11.54-.24 1.07-.78 1.18-.069.01-.14.01-.2.01-.47 0-.89-.32-.98-.8zm.68-3.18c-.55-.06-.95-.55-.899-1.1.06-.54.54-.95 1.09-.89.55.05.96.54.899 1.09-.05.52-.489.9-.989.9h-.101zm1.009-3.82c-.489-.24-.699-.84-.449-1.34.239-.49.84-.69 1.34-.45.49.25.7.85.45 1.34-.17.35-.53.56-.9.56-.14 0-.3-.03-.441-.11z"/>
                        <path stroke="#000" stroke-linecap="round" stroke-linejoin="round" stroke-width="2" d="M23.657 38.121l-3.705-2.323h0c-.377-.87-.66-1.774-.845-2.694"/>
                        <path fill="#000" fill-rule="nonzero" d="M7.31 40.2c-.319-.45-.21-1.08.24-1.4.45-.32 1.08-.21 1.4.24.31.45.21 1.08-.24 1.4-.18.12-.38.18-.58.18-.311 0-.62-.15-.82-.42zm3.339-2.19c-.21-.51.03-1.09.54-1.31.511-.21 1.101.03 1.311.54.21.51-.03 1.09-.54 1.31-.12.05-.26.07-.38.07-.391 0-.77-.23-.931-.61zm3.75-1.38c-.119-.54.221-1.08.75-1.2.54-.13 1.08.21 1.2.74.13.54-.21 1.08-.74 1.2-.079.02-.159.03-.229.03-.46 0-.87-.31-.981-.77z"/>
                        <path stroke="#000" stroke-linecap="round" stroke-linejoin="round" stroke-width="2" d="M20.058 35.741l-1.582.153c-1.044.101-2.078.27-3.095.506M39 31c-.246-3.549.27-6.345.749-8.152.606-2.284 1.854-6.985 4.582-7.459.38-.066.709-.036.929.001"/>
                        <path fill="#000" fill-rule="nonzero" d="M55.74 26.99c-.33-.45-.23-1.07.21-1.4.439-.33 1.069-.24 1.399.21.33.44.23 1.07-.21 1.4-.18.13-.39.19-.59.19-.309 0-.61-.14-.809-.4zm-2.421-3.12c-.35-.43-.289-1.06.141-1.41.43-.35 1.06-.29 1.41.14.34.43.279 1.06-.15 1.41-.18.15-.41.22-.63.22-.29 0-.58-.12-.771-.36zm-2.579-3c-.37-.4-.341-1.04.069-1.41.41-.37 1.04-.34 1.41.07.37.41.34 1.04-.07 1.41-.189.18-.43.26-.67.26-.269 0-.54-.11-.739-.33zM48 18.1c-.41-.37-.44-1.01-.07-1.42.37-.4 1-.43 1.41-.06.41.36.44 1 .07 1.41-.2.22-.471.33-.74.33-.24 0-.481-.09-.67-.26zm-2.87-1.72c-.55-.07-.93-.57-.86-1.12.07-.55.57-.93 1.12-.86.55.07.93.57.86 1.12-.07.5-.5.87-.99.87-.04 0-.09 0-.13-.01z"/>
                        <path stroke="#000" stroke-linecap="round" stroke-linejoin="round" stroke-width="2" d="M56.769 26.637c7.212 10.321 9.384 18.639 10.153 23.347.624 3.817.502 6.48-1.165 8.311-1.265 1.389-3.876 1.763-9.248 1.434l-3.678-.225c-7.616-.466-13.791-6.722-13.791-13.974L39 36.638"/>
                        <path fill="#000" fill-rule="nonzero" d="M56.41 55.17c-.24-.49-.03-1.09.46-1.34.5-.24 1.1-.03 1.34.46.24.5.04 1.1-.46 1.34-.141.07-.29.1-.44.1-.371 0-.72-.2-.9-.56zm-1.73-3.44c-.31-.46-.189-1.08.271-1.39.449-.31 1.069-.2 1.38.26.319.46.2 1.08-.261 1.39-.17.12-.359.18-.56.18-.321 0-.63-.16-.83-.44zM51.8 49.9c-.49-.24-.7-.84-.46-1.34.24-.49.84-.7 1.34-.46.49.24.7.84.46 1.34-.17.35-.531.56-.9.56-.15 0-.301-.03-.44-.1z"/>
                        <path stroke="#000" stroke-linecap="round" stroke-linejoin="round" stroke-width="2" d="M51.467 48.554c-.691-.467-1.289-1.067-1.755-1.773l-5.826-8.819s-7.392-1.395-10.032-6.332"/>
                        <path fill="#000" fill-rule="nonzero" d="M58.66 46.84c-.181-.19-.29-.45-.29-.71 0-.26.109-.52.29-.71.189-.18.449-.29.71-.29.27 0 .52.11.71.29.189.19.29.45.29.71 0 .26-.101.52-.29.71-.19.18-.44.29-.71.29-.261 0-.52-.11-.71-.29zm-3.25-1.49c-.521-.2-.78-.77-.58-1.29.189-.52.77-.78 1.29-.58.51.19.77.77.58 1.29-.15.4-.53.64-.94.64-.111 0-.23-.02-.35-.06zm-3.681-1.06c-.54-.11-.89-.63-.79-1.17.11-.54.641-.9 1.181-.79.54.11.89.64.779 1.18-.09.47-.51.8-.979.8-.061 0-.13 0-.191-.02z"/>
                        <path stroke="#000" stroke-linecap="round" stroke-linejoin="round" stroke-width="2" d="M51.468 43.227c-1.212-.217-2.443-.342-3.683-.372l-.91-.022"/>
                        <path fill="#000" fill-rule="nonzero" d="M46.62 53.01c-.181-.19-.29-.45-.29-.71 0-.27.109-.52.29-.71.189-.19.449-.29.71-.29.26 0 .52.1.71.29.18.19.29.44.29.71 0 .26-.11.52-.29.71-.19.18-.45.29-.71.29-.261 0-.52-.11-.71-.29zm-.99-4.53h-.01c-.061-.55.33-1.05.88-1.11.55-.06 1.05.33 1.109.88.061.55-.329 1.04-.88 1.11-.04 0-.08.01-.109.01-.5-.01-.94-.38-.99-.89z"/>
                        <path stroke="#000" stroke-linecap="round" stroke-linejoin="round" stroke-width="2" d="M46.525 47.428c-.11-1.29-.141-2.59-.092-3.889l.048-1.283"/>
                        <path fill="#000" fill-rule="nonzero" d="M48.74 33.3c-.551-.09-.931-.6-.841-1.14.08-.55.591-.92 1.141-.84.54.08.92.59.84 1.14-.08.49-.5.85-.99.85-.05 0-.1-.01-.15-.01zm-.83-4.83c-.08-.55.29-1.06.84-1.14.55-.08 1.05.3 1.13.85.09.54-.29 1.05-.84 1.13-.05.01-.101.01-.15.01-.491 0-.911-.36-.98-.85zm-1.48-3.36c-.24-.49-.04-1.09.46-1.34.49-.24 1.09-.04 1.34.46.24.49.04 1.09-.46 1.33-.14.08-.29.11-.439.11-.371 0-.722-.21-.901-.56z"/>
                        <path stroke="#000" stroke-linecap="round" stroke-linejoin="round" stroke-width="2" d="M48.776 32.945c-.185.92-.468 1.823-.845 2.694h0l-3.705 2.323"/>
                        <path fill="#000" fill-rule="nonzero" d="M60.2 41c-.45-.31-.561-.94-.24-1.39.32-.45.939-.56 1.399-.24.45.32.551.94.24 1.39-.2.28-.51.43-.819.43-.2 0-.4-.06-.58-.19zm-3.18-2.12c-.5-.24-.71-.84-.47-1.33.24-.5.84-.71 1.33-.47.5.24.71.84.47 1.33-.17.36-.53.57-.899.57-.141 0-.291-.03-.431-.1zm-3.581-1.36c-.529-.15-.84-.71-.68-1.24.15-.53.7-.84 1.23-.68.529.15.84.7.689 1.23-.13.44-.53.73-.96.73-.098 0-.188-.01-.279-.04z"/>
                        <path stroke="#000" stroke-linecap="round" stroke-linejoin="round" stroke-width="2" d="M52.502 36.242c-1.017-.236-2.051-.405-3.095-.506l-1.582-.153"/>
                        <circle cx="34" cy="4" r="1" fill="#000" fill-rule="nonzero"/>
                        <ellipse cx="34.018" cy="8" fill="#000" fill-rule="nonzero" rx="1.018" ry="1"/>
                        <circle cx="34" cy="12" r="1" fill="#000" fill-rule="nonzero"/>
                        <circle cx="34" cy="16" r="1" fill="#000" fill-rule="nonzero"/>
                    </g>
                </g>
            </g>
        </g>
    </g>
</svg>
