<svg xmlns="http://www.w3.org/2000/svg" width="45" height="45" viewBox="0 0 45 45">
    <g fill="none" fill-rule="evenodd">
        <g fill="#FFF" fill-rule="nonzero">
            <g>
                <path d="M12.51 10.853l9.91 10.15c.054-.004.107-.004.16 0l9.91-10.15c.46-.471 1.206-.47 1.665.001.46.472.46 1.237 0 1.708L24.45 22.5l9.704 9.939c.46.471.46 1.236 0 1.708s-1.205.472-1.666 0L22.58 23.998c-.053.004-.106.004-.16 0l-9.91 10.15c-.46.471-1.206.47-1.665-.001-.46-.472-.46-1.237 0-1.708l9.703-9.939-9.703-9.937c-.46-.471-.46-1.236 0-1.708s1.205-.472 1.666 0z" transform="translate(-1001 -101) translate(1001 101)"/>
            </g>
        </g>
    </g>
</svg>
