<svg xmlns="http://www.w3.org/2000/svg" width="21" height="21" viewBox="0 0 21 21">
    <g fill="none" fill-rule="evenodd">
        <g fill="#333" fill-rule="nonzero">
            <g>
                <g>
                    <path d="M10.061 3.333c.301 0 .545.245.545.546l-.005 5.518 5.52-.003c.301 0 .545.244.546.545 0 .301-.244.546-.545.546l-5.632.005-.005 5.632c0 .3-.245.545-.546.545-.301 0-.545-.245-.545-.546l.003-5.52-5.518.005c-.301 0-.545-.244-.546-.545 0-.301.244-.546.545-.546L9.51 9.51l.005-5.632c0-.3.245-.545.546-.545z" transform="translate(-339 -554) translate(20.97 540) translate(318.5 15)"/>
                </g>
            </g>
        </g>
    </g>
</svg>
