<svg xmlns="http://www.w3.org/2000/svg" width="180" height="40" viewBox="0 0 180 40">
    <g fill="none" fill-rule="evenodd">
        <g>
            <g>
                <g>
                    <path fill="#ffffffbf" d="M89.081 0c1.925 0 3.78.37 5.513 1.102 1.734.733 3.213 1.77 4.396 3.08l.094.104-2.773 2.732-.102-.112c-.774-.85-1.808-1.565-3.072-2.128-1.264-.564-2.629-.85-4.056-.85-1.351 0-2.62.254-3.77.755-1.15.5-2.172 1.204-3.035 2.092-.863.889-1.549 1.954-2.037 3.168-.488 1.216-.736 2.556-.736 3.985 0 1.481.254 2.854.755 4.08.5 1.226 1.204 2.292 2.092 3.166.887.876 1.947 1.56 3.148 2.036 1.202.476 2.523.717 3.928.717.875 0 1.705-.113 2.466-.338.766-.226 1.47-.518 2.095-.868.626-.35 1.197-.75 1.698-1.188.502-.44.947-.891 1.324-1.343l.097-.117 2.933 2.644-.085.107c-.591.746-1.282 1.436-2.052 2.053-.771.616-1.618 1.15-2.517 1.587-.898.436-1.868.781-2.881 1.025-1.016.244-2.052.367-3.078.367-2 0-3.88-.351-5.587-1.044-1.707-.693-3.204-1.67-4.45-2.903-1.246-1.232-2.236-2.717-2.942-4.412-.706-1.694-1.064-3.567-1.064-5.569 0-1.95.351-3.79 1.044-5.472.694-1.682 1.664-3.166 2.884-4.411 1.218-1.246 2.676-2.242 4.333-2.961C85.302.364 87.132 0 89.081 0zm65.663 8.805c1.598 0 3.096.367 4.452 1.09 1.354.721 2.472 1.69 3.323 2.876l.08.11-2.903 2.446-.092-.125c-.499-.672-1.163-1.292-1.975-1.842-.802-.542-1.772-.817-2.885-.817-.793 0-1.54.144-2.222.429-.68.284-1.275.691-1.769 1.21-.495.52-.89 1.142-1.176 1.849-.285.706-.43 1.48-.43 2.3 0 .87.145 1.67.43 2.376.284.704.69 1.312 1.21 1.806.52.496 1.142.891 1.848 1.176.707.285 1.494.43 2.339.43 1.166 0 2.17-.269 2.982-.8.824-.536 1.533-1.188 2.109-1.938l.086-.112 3.02 2.192-.072.115c-.387.62-.872 1.203-1.44 1.734-.57.53-1.218.988-1.927 1.362-.709.373-1.48.667-2.291.874-.813.206-1.643.31-2.467.31-1.39 0-2.697-.242-3.883-.718-1.187-.478-2.227-1.152-3.091-2.003-.866-.852-1.553-1.873-2.043-3.034-.49-1.161-.739-2.43-.739-3.77 0-1.34.242-2.61.72-3.77.477-1.16 1.144-2.18 1.983-3.033.838-.85 1.853-1.525 3.015-2.004 1.162-.477 2.443-.719 3.808-.719zm18.25 0c1.337 0 2.513.19 3.497.565.98.374 1.844.865 2.567 1.46l.106.086-2.044 2.837-.12-.092c-.548-.424-1.142-.765-1.764-1.014-.619-.247-1.296-.372-2.013-.372-.861 0-1.609.192-2.22.572-.597.37-.888.874-.888 1.54 0 .556.279.95.851 1.207.613.276 1.372.53 2.255.758.718.18 1.469.406 2.233.673.772.27 1.492.63 2.139 1.07.652.445 1.2 1.006 1.63 1.669.434.671.654 1.49.654 2.433 0 .862-.192 1.659-.572 2.367-.379.704-.888 1.306-1.514 1.788-.623.48-1.36.856-2.189 1.115-.829.258-1.693.39-2.57.39-2.83 0-5.308-.849-7.366-2.522l-.106-.085 2.042-2.917.121.094c1.675 1.3 3.436 1.96 5.232 1.96.761 0 1.463-.193 2.088-.572.609-.37.905-.875.905-1.54 0-.472-.153-.837-.467-1.117-.33-.293-.758-.534-1.273-.718-.528-.188-1.128-.36-1.783-.512-.667-.154-1.341-.348-2.006-.579-.539-.179-1.068-.408-1.572-.679-.508-.274-.964-.61-1.355-1.002-.393-.393-.712-.844-.947-1.342-.238-.501-.359-1.09-.359-1.747 0-.991.206-1.859.612-2.58.405-.717.933-1.318 1.572-1.787.636-.468 1.366-.823 2.17-1.056.801-.233 1.627-.35 2.453-.35zM107.182 0v27.473h-3.929V0h3.929zm19.505 8.805c1.344 0 2.609.295 3.76.877 1.15.582 2.126 1.375 2.901 2.356.596.752 1.049 1.638 1.346 2.633.297.993.446 2.29.446 3.851v8.951h-3.929v-9.142c0-1.128-.094-2.002-.28-2.598-.185-.591-.44-1.09-.759-1.483-.419-.517-.95-.935-1.578-1.244-.628-.307-1.308-.463-2.022-.463-1.166 0-2.178.257-3.005.763-.82.501-1.498 1.076-2.017 1.708v12.46h-3.93V9.187h3.815v1.544c.473-.396 1.1-.8 1.873-1.202.923-.481 2.06-.725 3.379-.725zm15.578.383v18.285h-3.93V9.188h3.93zm-27.92-.043V27.43h-3.93V9.145h3.93zM140.281.383c.7 0 1.308.252 1.807.75.499.5.751 1.108.751 1.808s-.253 1.303-.752 1.789c-.499.484-1.106.73-1.806.73s-1.302-.246-1.787-.732c-.486-.485-.733-1.087-.733-1.787s.246-1.307.731-1.806c.486-.5 1.088-.752 1.789-.752zM112.362.34c.7 0 1.307.252 1.806.75.499.5.751 1.108.751 1.807 0 .701-.253 1.304-.752 1.79-.499.484-1.106.73-1.806.73s-1.302-.246-1.787-.732c-.486-.485-.732-1.087-.732-1.788 0-.7.246-1.306.73-1.805.486-.5 1.088-.752 1.79-.752z" transform="translate(-40 -23) translate(40 23) translate(0 6)"/>
                    <path fill="#ffffffbf" d="M34.235 9.188v9.908c0 .9.088 1.626.26 2.156.172.528.42.98.738 1.348.393.467.891.84 1.482 1.111.59.27 1.226.408 1.891.408 1.09 0 2.069-.27 2.909-.8.83-.526 1.503-1.089 1.999-1.673V9.188h3.929v18.285h-3.814v-1.461c-.17.142-.369.29-.596.442-.35.233-.757.456-1.207.662-.45.206-.968.382-1.538.525-.573.143-1.177.216-1.796.216-1.318 0-2.556-.276-3.682-.819-1.125-.543-2.077-1.305-2.827-2.262-.57-.7-.997-1.541-1.27-2.5-.27-.953-.407-2.216-.407-3.754V9.188h3.93zM66.37 4.211v4.977h5.742v3.546H66.37v8.277c0 .476.031.906.093 1.277.06.356.197.667.41.927.236.284.576.508 1.008.663.441.16.9.24 1.367.24.273 0 .603-.018.981-.056.373-.037.7-.094.972-.168l.148-.04.788 3.568-.122.043c-.366.13-.814.23-1.332.294-.52.065-1.04.097-1.55.097-1.162 0-2.18-.19-3.026-.567-.845-.377-1.577-.91-2.175-1.588-.548-.6-.94-1.33-1.16-2.164-.22-.825-.331-1.739-.331-2.718v-8.085h-4.594V9.188h4.594V4.211h3.929zM13.545 0c1.9 0 3.696.358 5.341 1.064 1.644.707 3.09 1.697 4.297 2.943 1.208 1.246 2.171 2.737 2.864 4.43.693 1.694 1.044 3.541 1.044 5.491 0 1.976-.351 3.83-1.045 5.511-.692 1.68-1.656 3.165-2.863 4.41-.025.027-.051.053-.077.078h3.985v3.93L13.27 27.85c-1.8-.032-3.504-.389-5.065-1.06-1.645-.706-3.09-1.696-4.297-2.942-1.207-1.244-2.17-2.728-2.863-4.41C.352 17.758 0 15.904 0 13.928c0-1.95.352-3.797 1.045-5.491.693-1.694 1.656-3.185 2.863-4.43C5.115 2.76 6.56 1.77 8.205 1.064 9.849.358 11.645 0 13.545 0zm41.05 9.188v18.285h-3.928V9.188h3.929zm-41.05-5.26c-1.35 0-2.613.254-3.75.754-1.138.5-2.14 1.204-2.977 2.091-.839.889-1.505 1.955-1.98 3.17-.476 1.214-.717 2.555-.717 3.985 0 1.43.24 2.772.717 3.986.476 1.215 1.142 2.281 1.98 3.169.837.888 1.839 1.591 2.977 2.09 1.136.5 2.398.754 3.75.754 1.353 0 2.615-.253 3.751-.753 1.138-.5 2.14-1.203 2.977-2.091.838-.888 1.504-1.954 1.98-3.17.476-1.215.717-2.556.717-3.985 0-1.428-.241-2.77-.717-3.986-.476-1.214-1.142-2.28-1.98-3.169-.838-.887-1.84-1.59-2.977-2.09-1.138-.5-2.4-.754-3.75-.754zM52.612.384c.7 0 1.308.252 1.807.75.498.5.751 1.108.751 1.808 0 .701-.253 1.303-.753 1.789-.498.485-1.105.73-1.805.73s-1.302-.246-1.788-.731c-.486-.486-.731-1.088-.731-1.788s.245-1.307.73-1.806c.486-.5 1.088-.752 1.79-.752z" transform="translate(-40 -23) translate(40 23) translate(0 6)"/>
                </g>
            </g>
        </g>
    </g>
</svg>
